{"extensionsUsed":["CVTOOLS_babylon_mesh","CVTOOLS_left_handed","CVTOOLS_unity_metadata","KHR_materials_specular"],"extensionsRequired":["CVTOOLS_babylon_mesh","CVTOOLS_left_handed"],"accessors":[{"bufferView":0,"componentType":5126,"count":24,"type":"VEC3","max":[0.5,0.5,0.5],"min":[-0.5,-0.5,-0.5],"name":"vertices"},{"bufferView":1,"componentType":5126,"count":24,"type":"VEC3","max":[1.0,1.0,1.0],"min":[-1.0,-1.0,-1.0],"name":"normals"},{"bufferView":2,"componentType":5126,"count":24,"type":"VEC4","max":[0.0,0.0,1.0,-1.0],"min":[-1.0,0.0,-1.0,-1.0],"name":"tangents"},{"bufferView":3,"componentType":5126,"count":24,"type":"VEC2","max":[1.0,1.0],"min":[0.0,0.0],"name":"uv"},{"bufferView":4,"componentType":5126,"count":24,"type":"VEC2","max":[0.9966580867767334,0.99594426155090332],"min":[0.0040557663887739182,0.34716415405273438],"name":"uv2"},{"bufferView":5,"componentType":5125,"count":36,"type":"SCALAR","max":[23.0],"min":[0.0],"name":"indices"},{"bufferView":6,"componentType":5126,"count":121,"type":"VEC3","max":[5.0,1.1102230246251565E-16,5.0],"min":[-5.0,-1.1102230246251565E-16,-5.0],"name":"vertices"},{"bufferView":7,"componentType":5126,"count":121,"type":"VEC3","max":[0.0,1.0,0.0],"min":[0.0,1.0,0.0],"name":"normals"},{"bufferView":8,"componentType":5126,"count":121,"type":"VEC4","max":[-1.0,0.0,0.0,-1.0],"min":[-1.0,0.0,0.0,-1.0],"name":"tangents"},{"bufferView":9,"componentType":5126,"count":121,"type":"VEC2","max":[1.0,1.0],"min":[0.0,0.0],"name":"uv"},{"bufferView":10,"componentType":5126,"count":121,"type":"VEC2","max":[1.0,1.0],"min":[0.0,0.0],"name":"uv2"},{"bufferView":11,"componentType":5125,"count":600,"type":"SCALAR","max":[120.0],"min":[0.0],"name":"indices"},{"bufferView":12,"componentType":5126,"count":121,"type":"VEC3","max":[5.0,1.1102230246251565E-16,5.0],"min":[-5.0,-1.1102230246251565E-16,-5.0],"name":"vertices"},{"bufferView":13,"componentType":5126,"count":121,"type":"VEC3","max":[0.0,1.0,0.0],"min":[0.0,1.0,0.0],"name":"normals"},{"bufferView":14,"componentType":5126,"count":121,"type":"VEC4","max":[-1.0,0.0,0.0,-1.0],"min":[-1.0,0.0,0.0,-1.0],"name":"tangents"},{"bufferView":15,"componentType":5126,"count":121,"type":"VEC2","max":[1.0,1.0],"min":[0.0,0.0],"name":"uv"},{"bufferView":16,"componentType":5126,"count":121,"type":"VEC2","max":[1.0,1.0],"min":[0.0,0.0],"name":"uv2"},{"bufferView":17,"componentType":5125,"count":600,"type":"SCALAR","max":[120.0],"min":[0.0],"name":"indices"}],"asset":{"generator":"Babylon Toolkit (6000.0.37f1)","version":"2.0"},"buffers":[{"uri":"SampleScene.bin","byteLength":19840}],"bufferViews":[{"buffer":0,"byteLength":288},{"buffer":0,"byteOffset":288,"byteLength":288},{"buffer":0,"byteOffset":576,"byteLength":384},{"buffer":0,"byteOffset":960,"byteLength":192},{"buffer":0,"byteOffset":1152,"byteLength":192},{"buffer":0,"byteOffset":1344,"byteLength":144},{"buffer":0,"byteOffset":1488,"byteLength":1452},{"buffer":0,"byteOffset":2940,"byteLength":1452},{"buffer":0,"byteOffset":4392,"byteLength":1936},{"buffer":0,"byteOffset":6328,"byteLength":968},{"buffer":0,"byteOffset":7296,"byteLength":968},{"buffer":0,"byteOffset":8264,"byteLength":2400},{"buffer":0,"byteOffset":10664,"byteLength":1452},{"buffer":0,"byteOffset":12116,"byteLength":1452},{"buffer":0,"byteOffset":13568,"byteLength":1936},{"buffer":0,"byteOffset":15504,"byteLength":968},{"buffer":0,"byteOffset":16472,"byteLength":968},{"buffer":0,"byteOffset":17440,"byteLength":2400}],"materials":[{"pbrMetallicRoughness":{"metallicFactor":0.0,"roughnessFactor":0.5},"emissiveFactor":[0.0,0.0,0.0],"name":"Default-Material","extensions":{"KHR_materials_specular":{}},"extras":{"metadata":{"alphaMode":2,"alphaFade":false,"isSpecular":false,"useWireframe":false,"depthPrepass":false,"freezeMaterial":false,"disableLighting":false,"detailBlendLevel":0.75,"detailBumpLevel":1.0,"detailRoughLevel":0.5,"lightmapLevel":0.5,"backFaceCulling":true,"directIntensity":1.0,"specularIntensity":1.0,"emissiveIntensity":1.0,"environmentIntensity":1.0,"useExpandedLightmapTexture":false,"useEmissiveAsIllumination":false,"useLightmapAsShadowmap":true,"useAlphaFromAlbedoTexture":false,"hasAlbedoTextureChannel":false,"maxSimultaneousLights":4,"clearCoatIntensity":0.0,"indexOfRefraction":1.5,"ambientColorFactor":[1.0,1.0,1.0,1.0],"reflectionColorFactor":[1.0,1.0,1.0,1.0]}}},{"pbrMetallicRoughness":{"baseColorFactor":[1.0,1.0,0.0998987257,1.0],"metallicFactor":0.0,"roughnessFactor":0.5},"name":"M_YELLOW","extensions":{"KHR_materials_specular":{}},"extras":{"metadata":{"alphaMode":2,"alphaFade":false,"isSpecular":false,"useWireframe":false,"depthPrepass":false,"freezeMaterial":false,"disableLighting":false,"detailBlendLevel":0.75,"detailBumpLevel":1.0,"detailRoughLevel":0.5,"lightmapLevel":0.5,"backFaceCulling":true,"directIntensity":1.0,"specularIntensity":1.0,"emissiveIntensity":1.0,"environmentIntensity":1.0,"useExpandedLightmapTexture":false,"useEmissiveAsIllumination":false,"useLightmapAsShadowmap":true,"useAlphaFromAlbedoTexture":false,"hasAlbedoTextureChannel":false,"maxSimultaneousLights":4,"clearCoatIntensity":0.0,"indexOfRefraction":1.5,"ambientColorFactor":[1.0,1.0,1.0,1.0],"reflectionColorFactor":[1.0,1.0,1.0,1.0]}}}],"meshes":[{"primitives":[{"attributes":{"POSITION":0,"NORMAL":1,"TANGENT":2,"TEXCOORD_0":3,"TEXCOORD_1":4},"indices":5,"material":0}],"name":"Bottom"},{"primitives":[{"attributes":{"POSITION":6,"NORMAL":7,"TANGENT":8,"TEXCOORD_0":9,"TEXCOORD_1":10},"indices":11,"material":1}],"name":"ScoreLeft"},{"primitives":[{"attributes":{"POSITION":12,"NORMAL":13,"TANGENT":14,"TEXCOORD_0":15,"TEXCOORD_1":16},"indices":17,"material":0}],"name":"ScoreRight"}],"nodes":[{"rotation":[0.408217877,-0.234569684,0.109381631,0.8754261],"scale":[1.0,1.0,0.99999994],"translation":[1.83,50.0,-5.92],"name":"Directional Light","extras":{"metadata":{"guid":"01f08ef9-8977-4a3b-b73a-fa07149449df","components":[{"alias":"light","type":0,"range":10.0,"culling":-1,"clearflags":0,"renderlist":null,"color":{"r":1.0,"g":1.0,"b":1.0,"a":1.0},"specular":{"r":1.0,"g":1.0,"b":1.0,"a":1.0},"intensity":2.0,"spotangle":30.0,"orthoscale":0.1,"autorender":true,"lightmapmode":0,"lightmaptype":4,"numcascades":4,"calczbounds":false,"updateextends":false,"ortholeft":1.7976931348623157E+308,"orthoright":1.7976931348623157E+308,"orthotop":1.7976931348623157E+308,"orthobottom":1.7976931348623157E+308,"softshadows":false,"shadowmapsize":2048,"shadowquality":"High","generateshadows":false,"shadowdistance":150.0,"shadowstrength":1.0,"shadowbiasfactor":0.01,"normalbiasfactor":0.01,"shadowmapbias":0.05,"normalmapbias":0.4,"shadownearplane":0.2,"cascadelambda":0.9,"twocascadesplit":0.333333343,"fourcascadesplit":[0.06666667,0.2,0.466666669],"blendpertecntage":1E-08,"boundsrefreshrate":1,"lightcontactratio":0.1,"stabilizecascades":false,"exponentdecayspeed":1.0,"penumbradarkness":1.0,"softshadowsfilter":99,"freezeshadows":false,"setdepthclamp":false,"calcdepths":false,"depthscaling":50.0,"kernelblur":false,"blurscaling":2.0,"blurkernelsize":1.0,"blurboxoffset":1.0,"shadowfrustumsize":0.0,"frustumedgefalloff":0.0,"forcebackfacesonly":false,"transparencyshadow":false,"softtransparency":false,"shadowfilterquality":"Medium","usefullfloatfirst":false}]}}},{"translation":[3.51471353,0.771163464,-6.16136074],"name":"cameras","extras":{"metadata":{"guid":"20a80e1a-6ee7-498c-a8bd-39a70ce6999b"}}},{"children":[3,4,5,6,7,8,9,10,11,12],"translation":[0.0,0.0,1.0],"name":"pong","extras":{"metadata":{"guid":"384c6676-8ab4-4a0c-bc52-c9a58a3abaa9","layer":6,"layermask":64,"layername":"Pong","tags":"Untagged Layer6","components":[{"alias":"script","order":0,"klass":"SetLayerRecursively","properties":{"auto___layerMask":1},"instance":null},{"alias":"script","order":0,"klass":"InputManager","properties":null,"instance":null},{"alias":"script","order":0,"klass":"GameManager","properties":{"auto___goalLeft":{"type":"UnityEngine.Transform","id":"e674ed77-be32-41b7-87bd-aa72648ecbc7","tag":"Untagged","name":"GoalLeft","layer":6},"auto___goalRight":{"type":"UnityEngine.Transform","id":"5a49d3c7-7d7d-4deb-bec2-d5eb857876e4","tag":"Untagged","name":"GoalRight","layer":6},"auto___ball":{"type":"UnityEngine.Transform","id":"fc7c9096-0db1-4180-a93e-eff2e3d16006","tag":"Untagged","name":"Ball","layer":6},"auto___scoreLeftText":{"type":"UnityEngine.Transform","id":"27f84b5a-d4a2-4b0d-b575-1008dd4739c1","tag":"Untagged","name":"ScoreLeft","layer":6},"auto___scoreRightText":{"type":"UnityEngine.Transform","id":"447bad97-9cbe-448f-ae0b-441457e97908","tag":"Untagged","name":"ScoreRight","layer":6}},"instance":null}]}}},{"translation":[0.0,0.0,-1.0],"name":"camera","extras":{"metadata":{"guid":"f81543b3-9c9c-47b0-b6d5-732055b37606","layer":6,"layermask":64,"layername":"Pong","group":"MainCamera","tags":"MainCamera Layer6","components":[{"alias":"camera","type":1,"culling":64,"clearflags":3,"renderlist":["d7f284fe-945e-42b3-8251-5edab780aca3","41550e81-4576-4598-9c22-35833a1fe61e","fc7c9096-0db1-4180-a93e-eff2e3d16006","447bad97-9cbe-448f-ae0b-441457e97908","4e81d92d-7e1f-4882-850b-22825c5a05c3","bb60dbe4-a49b-49d8-8183-41c029cc89d9","27f84b5a-d4a2-4b0d-b575-1008dd4739c1"],"maincamera":true,"camerabase":0,"orthoxmag":8.877551,"orthoymag":5.0,"orthozfar":2011,"orthoznear":0.299959779},{"alias":"script","order":0,"klass":"PongCamera","properties":null,"instance":null}]}}},{"mesh":0,"rotation":[0.0,0.0,0.7071068,0.7071068],"scale":[0.35,14.0,1.0],"translation":[0.0,-4.825,0.0],"name":"Bottom","extras":{"metadata":{"guid":"41550e81-4576-4598-9c22-35833a1fe61e","layer":6,"layermask":64,"layername":"Pong","group":"Platform","tags":"Platform Layer6 Trigger","renderer":{"castshadows":true,"receiveshadows":true,"snapshotrendering":0,"usevertexcolors":false,"istriggervolume":true,"checkcollisions":true,"hasmeshcollider":false,"freezeworldmatrix":false,"setmeshpickable":true,"cullingstrategy":0,"showboundingbox":false,"defaultellipsoid":{"x":0.5,"y":1.0,"z":0.5},"ellipsoidoffset":{"x":0.0,"y":0.0,"z":0.0},"rendergroupid":0},"components":[{"alias":"script","order":0,"klass":"ColliderGenerator","properties":{"auto___shapeProperties":[{"type":3,"center":{"x":0.0,"y":0.0,"z":0.0},"isTrigger":true,"extents":{"x":0.350000054,"y":14.0000038,"z":1.0},"radius":null}],"auto___physicsMotionType":0},"instance":null},{"alias":"script","order":0,"klass":"Platform","properties":null,"instance":null}]}}},{"mesh":0,"rotation":[0.0,0.0,-0.7071068,0.7071068],"scale":[0.35,14.0,1.0],"translation":[0.0,4.825,0.0],"name":"top","extras":{"metadata":{"guid":"d7f284fe-945e-42b3-8251-5edab780aca3","layer":6,"layermask":64,"layername":"Pong","group":"Platform","tags":"Platform Layer6 Trigger","renderer":{"castshadows":true,"receiveshadows":true,"snapshotrendering":0,"usevertexcolors":false,"istriggervolume":true,"checkcollisions":true,"hasmeshcollider":false,"freezeworldmatrix":false,"setmeshpickable":true,"cullingstrategy":0,"showboundingbox":false,"defaultellipsoid":{"x":0.5,"y":1.0,"z":0.5},"ellipsoidoffset":{"x":0.0,"y":0.0,"z":0.0},"rendergroupid":0},"components":[{"alias":"script","order":0,"klass":"ColliderGenerator","properties":{"auto___shapeProperties":[{"type":3,"center":{"x":0.0,"y":0.0,"z":0.0},"isTrigger":true,"extents":{"x":0.350000054,"y":14.0000038,"z":1.0},"radius":null}],"auto___physicsMotionType":0},"instance":null},{"alias":"script","order":0,"klass":"Platform","properties":null,"instance":null}]}}},{"mesh":0,"scale":[0.35,1.73913038,1.0],"translation":[-6.125,0.0,0.0],"name":"PaddleLeft","extras":{"metadata":{"guid":"bb60dbe4-a49b-49d8-8183-41c029cc89d9","layer":6,"layermask":64,"layername":"Pong","group":"Paddle","tags":"Paddle Layer6 Trigger","renderer":{"castshadows":true,"receiveshadows":true,"snapshotrendering":0,"usevertexcolors":false,"istriggervolume":true,"checkcollisions":true,"hasmeshcollider":false,"freezeworldmatrix":false,"setmeshpickable":true,"cullingstrategy":0,"showboundingbox":false,"defaultellipsoid":{"x":0.5,"y":1.0,"z":0.5},"ellipsoidoffset":{"x":0.0,"y":0.0,"z":0.0},"rendergroupid":0},"components":[{"alias":"script","order":0,"klass":"ColliderGenerator","properties":{"auto___shapeProperties":[{"type":3,"center":{"x":0.0,"y":0.0,"z":0.0},"isTrigger":true,"extents":{"x":0.35,"y":1.73913038,"z":1.0},"radius":null}],"auto___physicsMotionType":1},"instance":null},{"alias":"script","order":0,"klass":"Paddle","properties":{"auto___speed":6.0,"auto___inputManagerTransform":{"type":"UnityEngine.Transform","id":"384c6676-8ab4-4a0c-bc52-c9a58a3abaa9","tag":"Untagged","name":"pong","layer":6},"auto___gameManagerTransform":{"type":"UnityEngine.Transform","id":"384c6676-8ab4-4a0c-bc52-c9a58a3abaa9","tag":"Untagged","name":"pong","layer":6},"auto___upKeyStringCode":"z","auto___downKeyStringCode":"s"},"instance":null}]}}},{"mesh":0,"rotation":[0.0,0.0,1.0,0.0],"scale":[0.35,1.73913038,1.0],"translation":[6.125,0.0,0.0],"name":"PaddleRight","extras":{"metadata":{"guid":"4e81d92d-7e1f-4882-850b-22825c5a05c3","layer":6,"layermask":64,"layername":"Pong","group":"Paddle","tags":"Paddle Layer6 Trigger","renderer":{"castshadows":true,"receiveshadows":true,"snapshotrendering":0,"usevertexcolors":false,"istriggervolume":true,"checkcollisions":true,"hasmeshcollider":false,"freezeworldmatrix":false,"setmeshpickable":true,"cullingstrategy":0,"showboundingbox":false,"defaultellipsoid":{"x":0.5,"y":1.0,"z":0.5},"ellipsoidoffset":{"x":0.0,"y":0.0,"z":0.0},"rendergroupid":0},"components":[{"alias":"script","order":0,"klass":"ColliderGenerator","properties":{"auto___shapeProperties":[{"type":3,"center":{"x":0.0,"y":0.0,"z":0.0},"isTrigger":true,"extents":{"x":0.35,"y":1.73913038,"z":1.0},"radius":null}],"auto___physicsMotionType":1},"instance":null},{"alias":"script","order":0,"klass":"Paddle","properties":{"auto___speed":6.0,"auto___inputManagerTransform":{"type":"UnityEngine.Transform","id":"384c6676-8ab4-4a0c-bc52-c9a58a3abaa9","tag":"Untagged","name":"pong","layer":6},"auto___gameManagerTransform":{"type":"UnityEngine.Transform","id":"384c6676-8ab4-4a0c-bc52-c9a58a3abaa9","tag":"Untagged","name":"pong","layer":6},"auto___upKeyStringCode":"ArrowUp","auto___downKeyStringCode":"ArrowDown"},"instance":null}]}}},{"mesh":0,"scale":[0.35,0.35,1.0],"name":"Ball","extras":{"metadata":{"guid":"fc7c9096-0db1-4180-a93e-eff2e3d16006","layer":6,"layermask":64,"layername":"Pong","tags":"Untagged Layer6","renderer":{"castshadows":true,"receiveshadows":true,"snapshotrendering":0,"usevertexcolors":false,"istriggervolume":false,"checkcollisions":true,"hasmeshcollider":false,"freezeworldmatrix":false,"setmeshpickable":true,"cullingstrategy":0,"showboundingbox":false,"defaultellipsoid":{"x":0.5,"y":1.0,"z":0.5},"ellipsoidoffset":{"x":0.0,"y":0.0,"z":0.0},"rendergroupid":0},"components":[{"alias":"script","order":0,"klass":"Ball","properties":{"auto___initialDirection":{"x":1.0,"y":0.0,"z":0.0},"auto___speed":6.0},"instance":null},{"alias":"script","order":0,"klass":"ColliderGenerator","properties":{"auto___shapeProperties":[{"type":3,"center":{"x":0.0,"y":0.0,"z":0.0},"isTrigger":false,"extents":{"x":0.35,"y":0.35,"z":1.0},"radius":null}],"auto___physicsMotionType":2},"instance":null}]}}},{"scale":[1.0,10.0,1.0],"translation":[-6.8,0.0,0.0],"name":"GoalLeft","extras":{"metadata":{"guid":"e674ed77-be32-41b7-87bd-aa72648ecbc7","layer":6,"layermask":64,"layername":"Pong","tags":"Untagged Layer6 Trigger","components":[{"alias":"script","order":0,"klass":"ColliderGenerator","properties":{"auto___shapeProperties":[{"type":3,"center":{"x":0.0,"y":0.0,"z":0.0},"isTrigger":true,"extents":{"x":1.0,"y":10.0,"z":1.0},"radius":null}],"auto___physicsMotionType":0},"instance":null}]}}},{"scale":[1.0,10.0,1.0],"translation":[6.8,0.0,0.0],"name":"GoalRight","extras":{"metadata":{"guid":"5a49d3c7-7d7d-4deb-bec2-d5eb857876e4","layer":6,"layermask":64,"layername":"Pong","tags":"Untagged Layer6 Trigger","components":[{"alias":"script","order":0,"klass":"ColliderGenerator","properties":{"auto___shapeProperties":[{"type":3,"center":{"x":0.0,"y":0.0,"z":0.0},"isTrigger":true,"extents":{"x":1.0,"y":10.0,"z":1.0},"radius":null}],"auto___physicsMotionType":0},"instance":null}]}}},{"mesh":1,"rotation":[0.0,-0.7071068,0.7071068,0.0],"scale":[0.4,0.1,0.1],"translation":[-2.0,4.0,0.0],"name":"ScoreLeft","extras":{"metadata":{"guid":"27f84b5a-d4a2-4b0d-b575-1008dd4739c1","layer":6,"layermask":64,"layername":"Pong","tags":"Untagged Layer6","renderer":{"castshadows":true,"receiveshadows":true,"snapshotrendering":0,"usevertexcolors":false,"istriggervolume":false,"checkcollisions":false,"hasmeshcollider":false,"freezeworldmatrix":false,"setmeshpickable":true,"cullingstrategy":0,"showboundingbox":false,"defaultellipsoid":{"x":0.5,"y":1.0,"z":0.5},"ellipsoidoffset":{"x":0.0,"y":0.0,"z":0.0},"rendergroupid":0},"components":[{"alias":"script","order":0,"klass":"Text","properties":{"auto___text":"0","auto___color":{"r":1.0,"g":1.0,"b":1.0,"a":1.0}},"instance":null}]}}},{"mesh":2,"rotation":[0.0,-0.7071068,0.7071068,0.0],"scale":[0.4,0.1,0.1],"translation":[2.0,4.0,0.0],"name":"ScoreRight","extras":{"metadata":{"guid":"447bad97-9cbe-448f-ae0b-441457e97908","layer":6,"layermask":64,"layername":"Pong","tags":"Untagged Layer6","renderer":{"castshadows":true,"receiveshadows":true,"snapshotrendering":0,"usevertexcolors":false,"istriggervolume":false,"checkcollisions":false,"hasmeshcollider":false,"freezeworldmatrix":false,"setmeshpickable":true,"cullingstrategy":0,"showboundingbox":false,"defaultellipsoid":{"x":0.5,"y":1.0,"z":0.5},"ellipsoidoffset":{"x":0.0,"y":0.0,"z":0.0},"rendergroupid":0},"components":[{"alias":"script","order":0,"klass":"Text","properties":{"auto___text":"0","auto___color":{"r":1.0,"g":1.0,"b":1.0,"a":1.0}},"instance":null}]}}}],"scene":0,"scenes":[{"nodes":[0,1,2],"name":"SampleScene","extras":{"metadata":{"gltf":true,"license":"community","licensee":"DefaultCompany","filename":"SampleScene","script":"transcendencepong","project":"TranscendencePong.js","intensity":1.0,"debugging":false,"properties":true,"disposeroot":false,"webptextures":false,"webplightmaps":false,"ktxtextures":false,"ktxlightmaps":false,"rendergroups":4,"rawmaterials":[],"enablelegacyaudio":false,"snapshotrendering":0,"colliderinstances":true,"reparentcolliders":true,"defaultrendergroup":0,"colliderrendergroup":0,"globalillumination":false,"prewarmup":1.0,"hideloader":true,"exposure":1,"tonemapping":0,"gammacorrection":1,"trianglenormals":true,"deltaworldstep":false,"subtimestep":0.0,"contextmenu":true,"pointerlock":false,"preventdefault":false,"ccdpenetration":0.0001,"ccdenabled":true,"maxworldsweep":0,"enableinput":true,"usecapture":false,"userinput":null,"showdebugcolliders":false,"collidervisibility":0.5,"collisionwireframe":true,"navigation":null,"autoclear":true,"clearcolor":{"r":0.192156866,"g":0.3019608,"b":0.4745098,"a":1.0},"sunposition":{"x":1.83,"y":50.0,"z":-5.92},"sunrotation":{"x":0.408217877,"y":-0.234569684,"z":0.109381631,"w":0.8754261},"enablephysics":true,"defaultgravity":{"x":0.0,"y":-9.81,"z":0.0},"freezeactivemeshes":false,"performancepriority":0,"imageprocessing":{"contrast":1.0,"exposure":1.0},"ambientlightintensity":0.7,"ambientspecularcolor":{"r":0.0,"g":0.0,"b":0.0,"a":1.0},"ambientgroundcolor":{"r":0.212,"g":0.227,"b":0.259,"a":1.0},"ambientskycolor":{"r":0.212,"g":0.227,"b":0.259,"a":1.0},"ambientcoloring":{"r":0.0,"g":0.0,"b":0.0,"a":1.0},"ambientlighting":0,"ambientlightmap":0,"fogtype":"None","fogmode":0,"fogdensity":0.01,"fogcolor":{"r":0.5,"g":0.5,"b":0.5,"a":1.0},"fogstart":0.0,"fogend":300.0,"skybox":null}}}]}