{"extensionsUsed":["CVTOOLS_babylon_mesh","CVTOOLS_left_handed","CVTOOLS_unity_metadata","KHR_materials_specular"],"extensionsRequired":["CVTOOLS_babylon_mesh","CVTOOLS_left_handed"],"accessors":[{"bufferView":0,"componentType":5126,"count":121,"type":"VEC3","max":[5.0,1.1102230246251565E-16,5.0],"min":[-5.0,-1.1102230246251565E-16,-5.0],"name":"vertices"},{"bufferView":1,"componentType":5126,"count":121,"type":"VEC3","max":[0.0,1.0,0.0],"min":[0.0,1.0,0.0],"name":"normals"},{"bufferView":2,"componentType":5126,"count":121,"type":"VEC4","max":[-1.0,0.0,0.0,-1.0],"min":[-1.0,0.0,0.0,-1.0],"name":"tangents"},{"bufferView":3,"componentType":5126,"count":121,"type":"VEC2","max":[1.0,1.0],"min":[0.0,0.0],"name":"uv"},{"bufferView":4,"componentType":5126,"count":121,"type":"VEC2","max":[1.0,1.0],"min":[0.0,0.0],"name":"uv2"},{"bufferView":5,"componentType":5125,"count":600,"type":"SCALAR","max":[120.0],"min":[0.0],"name":"indices"},{"bufferView":6,"componentType":5126,"count":24,"type":"VEC3","max":[0.5,0.5,0.5],"min":[-0.5,-0.5,-0.5],"name":"vertices"},{"bufferView":7,"componentType":5126,"count":24,"type":"VEC3","max":[1.0,1.0,1.0],"min":[-1.0,-1.0,-1.0],"name":"normals"},{"bufferView":8,"componentType":5126,"count":24,"type":"VEC4","max":[0.0,0.0,1.0,-1.0],"min":[-1.0,0.0,-1.0,-1.0],"name":"tangents"},{"bufferView":9,"componentType":5126,"count":24,"type":"VEC2","max":[1.0,1.0],"min":[0.0,0.0],"name":"uv"},{"bufferView":10,"componentType":5126,"count":24,"type":"VEC2","max":[0.9966580867767334,0.99594426155090332],"min":[0.0040557663887739182,0.34716415405273438],"name":"uv2"},{"bufferView":11,"componentType":5125,"count":36,"type":"SCALAR","max":[23.0],"min":[0.0],"name":"indices"},{"bufferView":12,"componentType":5126,"count":515,"type":"VEC3","max":[0.5,0.5,0.5],"min":[-0.5,-0.5,-0.5],"name":"vertices"},{"bufferView":13,"componentType":5126,"count":515,"type":"VEC3","max":[0.99997496604919434,1.0,0.9999769926071167],"min":[-0.99997496604919434,-1.0,-0.99997353553771973],"name":"normals"},{"bufferView":14,"componentType":5126,"count":515,"type":"VEC4","max":[1.0,0.056131001561880112,1.0,1.0],"min":[-1.0,-0.065983392298221588,-1.0,-1.0],"name":"tangents"},{"bufferView":15,"componentType":5126,"count":515,"type":"VEC2","max":[0.99833369255065918,0.98237103223800659],"min":[-0.00092136859893798828,0.024108767509460449],"name":"uv"},{"bufferView":16,"componentType":5126,"count":515,"type":"VEC2","max":[1.0000003576278687,1.0],"min":[0.0,0.34614646434783936],"name":"uv2"},{"bufferView":17,"componentType":5125,"count":2304,"type":"SCALAR","max":[514.0],"min":[0.0],"name":"indices"}],"asset":{"generator":"Babylon Toolkit (6000.0.37f1)","version":"2.0"},"buffers":[{"uri":"SampleScene.bin","byteLength":48720}],"bufferViews":[{"buffer":0,"byteLength":1452},{"buffer":0,"byteOffset":1452,"byteLength":1452},{"buffer":0,"byteOffset":2904,"byteLength":1936},{"buffer":0,"byteOffset":4840,"byteLength":968},{"buffer":0,"byteOffset":5808,"byteLength":968},{"buffer":0,"byteOffset":6776,"byteLength":2400},{"buffer":0,"byteOffset":9176,"byteLength":288},{"buffer":0,"byteOffset":9464,"byteLength":288},{"buffer":0,"byteOffset":9752,"byteLength":384},{"buffer":0,"byteOffset":10136,"byteLength":192},{"buffer":0,"byteOffset":10328,"byteLength":192},{"buffer":0,"byteOffset":10520,"byteLength":144},{"buffer":0,"byteOffset":10664,"byteLength":6180},{"buffer":0,"byteOffset":16844,"byteLength":6180},{"buffer":0,"byteOffset":23024,"byteLength":8240},{"buffer":0,"byteOffset":31264,"byteLength":4120},{"buffer":0,"byteOffset":35384,"byteLength":4120},{"buffer":0,"byteOffset":39504,"byteLength":9216}],"images":[{"uri":"assets/project/materials/gamble400_400.png","name":"gamble400_400"}],"materials":[{"pbrMetallicRoughness":{"baseColorTexture":{"index":0,"texCoord":0},"metallicFactor":0.0,"roughnessFactor":0.5},"name":"M_GROUND","extensions":{"KHR_materials_specular":{}},"extras":{"metadata":{"alphaMode":2,"alphaFade":false,"isSpecular":false,"useWireframe":false,"depthPrepass":false,"freezeMaterial":false,"disableLighting":false,"detailBlendLevel":0.75,"detailBumpLevel":1.0,"detailRoughLevel":0.5,"lightmapLevel":0.5,"backFaceCulling":true,"directIntensity":1.0,"specularIntensity":1.0,"emissiveIntensity":1.0,"environmentIntensity":1.0,"useExpandedLightmapTexture":false,"useEmissiveAsIllumination":false,"useLightmapAsShadowmap":true,"useAlphaFromAlbedoTexture":true,"hasAlbedoTextureChannel":false,"maxSimultaneousLights":4,"clearCoatIntensity":0.0,"indexOfRefraction":1.5,"ambientColorFactor":[1.0,1.0,1.0,1.0],"reflectionColorFactor":[1.0,1.0,1.0,1.0]}}},{"pbrMetallicRoughness":{"metallicFactor":0.0,"roughnessFactor":0.5},"emissiveFactor":[0.0,0.0,0.0],"name":"Default-Material","extensions":{"KHR_materials_specular":{}},"extras":{"metadata":{"alphaMode":2,"alphaFade":false,"isSpecular":false,"useWireframe":false,"depthPrepass":false,"freezeMaterial":false,"disableLighting":false,"detailBlendLevel":0.75,"detailBumpLevel":1.0,"detailRoughLevel":0.5,"lightmapLevel":0.5,"backFaceCulling":true,"directIntensity":1.0,"specularIntensity":1.0,"emissiveIntensity":1.0,"environmentIntensity":1.0,"useExpandedLightmapTexture":false,"useEmissiveAsIllumination":false,"useLightmapAsShadowmap":true,"useAlphaFromAlbedoTexture":false,"hasAlbedoTextureChannel":false,"maxSimultaneousLights":4,"clearCoatIntensity":0.0,"indexOfRefraction":1.5,"ambientColorFactor":[1.0,1.0,1.0,1.0],"reflectionColorFactor":[1.0,1.0,1.0,1.0]}}}],"meshes":[{"primitives":[{"attributes":{"POSITION":0,"NORMAL":1,"TANGENT":2,"TEXCOORD_0":3,"TEXCOORD_1":4},"indices":5,"material":0}],"name":"Plane"},{"primitives":[{"attributes":{"POSITION":6,"NORMAL":7,"TANGENT":8,"TEXCOORD_0":9,"TEXCOORD_1":10},"indices":11,"material":1}],"name":"Bottom"},{"primitives":[{"attributes":{"POSITION":12,"NORMAL":13,"TANGENT":14,"TEXCOORD_0":15,"TEXCOORD_1":16},"indices":17,"material":1}],"name":"Ball"}],"nodes":[{"rotation":[0.408217877,-0.234569684,0.109381631,0.8754261],"scale":[1.0,1.0,0.99999994],"translation":[1.83,50.0,-5.92],"name":"Directional Light","extras":{"metadata":{"guid":"2a1ed01d-51bd-4d81-96d7-6ffa54db45a0","components":[{"alias":"light","type":0,"range":10.0,"culling":-1,"clearflags":0,"renderlist":null,"color":{"r":1.0,"g":1.0,"b":1.0,"a":1.0},"specular":{"r":1.0,"g":1.0,"b":1.0,"a":1.0},"intensity":2.0,"spotangle":30.0,"orthoscale":0.1,"autorender":true,"lightmapmode":0,"lightmaptype":4,"numcascades":4,"calczbounds":false,"updateextends":false,"ortholeft":1.7976931348623157E+308,"orthoright":1.7976931348623157E+308,"orthotop":1.7976931348623157E+308,"orthobottom":1.7976931348623157E+308,"softshadows":false,"shadowmapsize":2048,"shadowquality":"High","generateshadows":false,"shadowdistance":150.0,"shadowstrength":1.0,"shadowbiasfactor":0.01,"normalbiasfactor":0.01,"shadowmapbias":0.05,"normalmapbias":0.4,"shadownearplane":0.2,"cascadelambda":0.9,"twocascadesplit":0.333333343,"fourcascadesplit":[0.06666667,0.2,0.466666669],"blendpertecntage":1E-08,"boundsrefreshrate":1,"lightcontactratio":0.1,"stabilizecascades":false,"exponentdecayspeed":1.0,"penumbradarkness":1.0,"softshadowsfilter":99,"freezeshadows":false,"setdepthclamp":false,"calcdepths":false,"depthscaling":50.0,"kernelblur":false,"blurscaling":2.0,"blurkernelsize":1.0,"blurboxoffset":1.0,"shadowfrustumsize":0.0,"frustumedgefalloff":0.0,"forcebackfacesonly":false,"transparencyshadow":false,"softtransparency":false,"shadowfilterquality":"Medium","usefullfloatfirst":false}]}}},{"translation":[3.51471353,0.771163464,-6.16136074],"name":"cameras","extras":{"metadata":{"guid":"64e5ff61-d196-43d3-bd3c-a51a3cf7defb"}}},{"children":[3,4],"name":"backround","extras":{"metadata":{"guid":"14c3efc6-a09f-4577-8765-c8119d36e898","components":[{"alias":"script","order":0,"klass":"SetLayerRecursively","properties":{"auto__layerMask":2},"instance":null}]}}},{"mesh":0,"translation":[0.0,-3.04116344,5.39136076],"name":"Plane","extras":{"metadata":{"guid":"e9e9d7ab-c5f1-49d1-b712-b19e7b64a740","renderer":{"castshadows":true,"receiveshadows":true,"snapshotrendering":0,"usevertexcolors":false,"istriggervolume":false,"checkcollisions":false,"hasmeshcollider":false,"freezeworldmatrix":false,"setmeshpickable":true,"cullingstrategy":0,"showboundingbox":false,"defaultellipsoid":{"x":0.5,"y":1.0,"z":0.5},"ellipsoidoffset":{"x":0.0,"y":0.0,"z":0.0},"rendergroupid":0}}}},{"name":"camera","extras":{"metadata":{"guid":"c8a396aa-c143-4da3-b5a3-b69cf54e9e17","components":[{"alias":"camera","type":0,"culling":1,"clearflags":1,"renderlist":["e9e9d7ab-c5f1-49d1-b712-b19e7b64a740"],"maincamera":false,"camerabase":0,"perspectiveyfov":1.04719758,"perspectiveaspect":1.77551019,"perspectivezfar":2011,"perspectiveznear":0.3},{"alias":"script","order":0,"klass":"BackgroundCamera","properties":null,"instance":null}]}}},{"children":[6,7,8,9,10,11],"translation":[0.0,0.0,1.0],"name":"pong","extras":{"metadata":{"guid":"f52beaa1-3d22-4875-8591-e3f94121469b","layer":6,"layermask":64,"layername":"Pong","tags":"Untagged Layer6","components":[{"alias":"script","order":0,"klass":"SetLayerRecursively","properties":{"auto__layerMask":1},"instance":null}]}}},{"translation":[0.0,0.0,-1.0],"name":"camera","extras":{"metadata":{"guid":"3ed5555e-4378-4ec9-ab33-087cf7b4abda","layer":6,"layermask":64,"layername":"Pong","group":"MainCamera","tags":"MainCamera Layer6","components":[{"alias":"camera","type":1,"culling":64,"clearflags":3,"renderlist":["3d1af1d5-cbc5-4c8c-ab64-5ea6a54844c0","332f2967-e7aa-46ee-9f58-423cfab8e33f","076e64b0-bf76-4d96-add7-627c72d7c050","d9cb3929-aaa6-4fbb-b22a-8d355903ba73","001e3e73-c11c-4b53-9688-e3c9fc40a2d9"],"maincamera":true,"camerabase":0,"orthoxmag":8.988521,"orthoymag":5.0625,"orthozfar":2011,"orthoznear":0.299959779},{"alias":"script","order":0,"klass":"PongCamera","properties":null,"instance":null}]}}},{"mesh":1,"scale":[10.0,0.25,1.0],"translation":[0.0,-4.875,0.0],"name":"Bottom","extras":{"metadata":{"guid":"332f2967-e7aa-46ee-9f58-423cfab8e33f","layer":6,"layermask":64,"layername":"Pong","tags":"Untagged Layer6 Trigger","renderer":{"castshadows":true,"receiveshadows":true,"snapshotrendering":0,"usevertexcolors":false,"istriggervolume":true,"checkcollisions":true,"hasmeshcollider":false,"freezeworldmatrix":false,"setmeshpickable":true,"cullingstrategy":0,"showboundingbox":false,"defaultellipsoid":{"x":0.5,"y":1.0,"z":0.5},"ellipsoidoffset":{"x":0.0,"y":0.0,"z":0.0},"rendergroupid":0},"components":[{"alias":"script","order":0,"klass":"BouncingPlateform","properties":null,"instance":null},{"alias":"script","order":0,"klass":"ColliderGenerator","properties":{"auto__shapeProperties":[{"type":3,"center":{"x":0.0,"y":0.0,"z":0.0},"extents":{"x":10.0,"y":0.25,"z":1.0},"radius":null}],"auto__physicsMotionType":1},"instance":null}]}}},{"mesh":1,"scale":[10.0,0.25,1.0],"translation":[0.0,4.875,0.0],"name":"top","extras":{"metadata":{"guid":"3d1af1d5-cbc5-4c8c-ab64-5ea6a54844c0","layer":6,"layermask":64,"layername":"Pong","tags":"Untagged Layer6 Trigger","renderer":{"castshadows":true,"receiveshadows":true,"snapshotrendering":0,"usevertexcolors":false,"istriggervolume":true,"checkcollisions":true,"hasmeshcollider":false,"freezeworldmatrix":false,"setmeshpickable":true,"cullingstrategy":0,"showboundingbox":false,"defaultellipsoid":{"x":0.5,"y":1.0,"z":0.5},"ellipsoidoffset":{"x":0.0,"y":0.0,"z":0.0},"rendergroupid":0},"components":[{"alias":"script","order":0,"klass":"BouncingPlateform","properties":null,"instance":null},{"alias":"script","order":0,"klass":"ColliderGenerator","properties":{"auto__shapeProperties":[{"type":3,"center":{"x":0.0,"y":0.0,"z":0.0},"extents":{"x":10.0,"y":0.25,"z":1.0},"radius":null}],"auto__physicsMotionType":0},"instance":null}]}}},{"mesh":1,"scale":[0.125,2.0,1.0],"translation":[-5.125,0.0,0.0],"name":"PaddleLeft","extras":{"metadata":{"guid":"001e3e73-c11c-4b53-9688-e3c9fc40a2d9","layer":6,"layermask":64,"layername":"Pong","tags":"Untagged Layer6 Trigger","renderer":{"castshadows":true,"receiveshadows":true,"snapshotrendering":0,"usevertexcolors":false,"istriggervolume":true,"checkcollisions":true,"hasmeshcollider":false,"freezeworldmatrix":false,"setmeshpickable":true,"cullingstrategy":0,"showboundingbox":false,"defaultellipsoid":{"x":0.5,"y":1.0,"z":0.5},"ellipsoidoffset":{"x":0.0,"y":0.0,"z":0.0},"rendergroupid":0},"components":[{"alias":"script","order":0,"klass":"BouncingPlateform","properties":null,"instance":null},{"alias":"script","order":0,"klass":"ColliderGenerator","properties":{"auto__shapeProperties":[{"type":3,"center":{"x":0.0,"y":0.0,"z":0.0},"extents":{"x":0.125,"y":2.0,"z":1.0},"radius":null}],"auto__physicsMotionType":0},"instance":null}]}}},{"mesh":1,"scale":[0.125,2.0,1.0],"translation":[5.125,0.0,0.0],"name":"PaddleRight","extras":{"metadata":{"guid":"d9cb3929-aaa6-4fbb-b22a-8d355903ba73","layer":6,"layermask":64,"layername":"Pong","tags":"Untagged Layer6","renderer":{"castshadows":true,"receiveshadows":true,"snapshotrendering":0,"usevertexcolors":false,"istriggervolume":false,"checkcollisions":true,"hasmeshcollider":false,"freezeworldmatrix":false,"setmeshpickable":true,"cullingstrategy":0,"showboundingbox":false,"defaultellipsoid":{"x":0.5,"y":1.0,"z":0.5},"ellipsoidoffset":{"x":0.0,"y":0.0,"z":0.0},"rendergroupid":0},"components":[{"alias":"script","order":0,"klass":"BouncingPlateform","properties":null,"instance":null},{"alias":"script","order":0,"klass":"ColliderGenerator","properties":{"auto__shapeProperties":[{"type":3,"center":{"x":0.0,"y":0.0,"z":0.0},"extents":{"x":0.125,"y":2.0,"z":1.0},"radius":null}],"auto__physicsMotionType":0},"instance":null}]}}},{"mesh":2,"scale":[0.25,0.25,1.0],"name":"Ball","extras":{"metadata":{"guid":"076e64b0-bf76-4d96-add7-627c72d7c050","layer":6,"layermask":64,"layername":"Pong","tags":"Untagged Layer6","renderer":{"castshadows":true,"receiveshadows":true,"snapshotrendering":0,"usevertexcolors":false,"istriggervolume":false,"checkcollisions":true,"hasmeshcollider":false,"freezeworldmatrix":false,"setmeshpickable":true,"cullingstrategy":0,"showboundingbox":false,"defaultellipsoid":{"x":0.5,"y":1.0,"z":0.5},"ellipsoidoffset":{"x":0.0,"y":0.0,"z":0.0},"rendergroupid":0},"components":[{"alias":"script","order":0,"klass":"Ball","properties":{"auto__initialDirection":{"x":1.0,"y":0.0,"z":0.0},"auto__speed":3.0},"instance":null}]}}}],"samplers":[{"minFilter":9985,"wrapS":33071,"wrapT":33071}],"scene":0,"scenes":[{"nodes":[0,1,2,5],"name":"SampleScene","extras":{"metadata":{"gltf":true,"license":"community","licensee":"DefaultCompany","filename":"SampleScene","script":"transcendencepong","project":"TranscendencePong.js","intensity":1.0,"debugging":false,"properties":true,"disposeroot":false,"webptextures":false,"webplightmaps":false,"ktxtextures":false,"ktxlightmaps":false,"rendergroups":4,"rawmaterials":[],"enablelegacyaudio":false,"snapshotrendering":0,"colliderinstances":true,"reparentcolliders":true,"defaultrendergroup":0,"colliderrendergroup":0,"globalillumination":false,"prewarmup":1.0,"hideloader":true,"exposure":1,"tonemapping":0,"gammacorrection":1,"trianglenormals":true,"deltaworldstep":false,"subtimestep":0.0,"contextmenu":true,"pointerlock":false,"preventdefault":false,"ccdpenetration":0.0001,"ccdenabled":true,"maxworldsweep":0,"enableinput":true,"usecapture":false,"userinput":null,"showdebugcolliders":false,"collidervisibility":0.5,"collisionwireframe":true,"navigation":null,"autoclear":true,"clearcolor":{"r":0.192156866,"g":0.3019608,"b":0.4745098,"a":1.0},"sunposition":{"x":1.83,"y":50.0,"z":-5.92},"sunrotation":{"x":0.408217877,"y":-0.234569684,"z":0.109381631,"w":0.8754261},"enablephysics":true,"defaultgravity":{"x":0.0,"y":-9.81,"z":0.0},"freezeactivemeshes":false,"performancepriority":0,"imageprocessing":{"contrast":1.0,"exposure":1.0},"ambientlightintensity":0.7,"ambientspecularcolor":{"r":0.0,"g":0.0,"b":0.0,"a":1.0},"ambientgroundcolor":{"r":0.212,"g":0.227,"b":0.259,"a":1.0},"ambientskycolor":{"r":0.212,"g":0.227,"b":0.259,"a":1.0},"ambientcoloring":{"r":0.0,"g":0.0,"b":0.0,"a":1.0},"ambientlighting":0,"ambientlightmap":0,"fogtype":"None","fogmode":0,"fogdensity":0.01,"fogcolor":{"r":0.5,"g":0.5,"b":0.5,"a":1.0},"fogstart":0.0,"fogend":300.0,"skybox":null}}}],"textures":[{"sampler":0,"source":0,"name":"gamble400_400"}]}